<?xml version="1.0" encoding="utf-8"?>
<!-- Generator: Adobe Illustrator 18.0.0, SVG Export Plug-In . SVG Version: 6.00 Build 0)  -->
<!DOCTYPE svg PUBLIC "-//W3C//DTD SVG 1.1//EN" "http://www.w3.org/Graphics/SVG/1.1/DTD/svg11.dtd">
<svg version="1.1" id="Layer_1" xmlns="http://www.w3.org/2000/svg" xmlns:xlink="http://www.w3.org/1999/xlink" x="0px" y="0px"
	 viewBox="0 0 1098 601.3" enable-background="new 0 0 1098 601.3" xml:space="preserve">
<rect y="-53.2" fill="#089E90" width="1102.3" height="671.4"/>
<g>
	<polygon fill="#FFFFFF" points="101.3,133.8 38.8,169.9 101.3,206 	"/>
	<polygon fill="#FFFFFF" points="163.9,242.1 163.9,242.1 163.9,169.9 101.3,206 	"/>
	<polygon fill="#FFFFFF" points="163.9,169.9 101.3,133.8 101.3,206 	"/>
	<polygon fill="#FFFFFF" points="38.8,169.9 38.8,169.9 38.8,242.1 101.3,206 	"/>
	<polygon fill="#FFFFFF" points="101.3,206 101.3,278.2 163.9,242.1 	"/>
	<polygon fill="#FFFFFF" points="38.8,242.1 101.3,278.2 101.3,206 	"/>
</g>
<g>
	<polygon fill="#FFFFFF" points="170.2,249.9 107.7,286 170.2,322.1 	"/>
	<polygon fill="#FFFFFF" points="232.8,358.2 232.8,358.2 232.8,286 170.2,322.1 	"/>
	<polygon fill="#FFFFFF" points="232.8,286 170.2,249.9 170.2,322.1 	"/>
	<polygon fill="#FFFFFF" points="107.7,286 107.7,286 107.7,358.2 170.2,322.1 	"/>
	<polygon fill="#FFFFFF" points="170.2,322.1 170.2,394.3 232.8,358.2 	"/>
	<polygon fill="#FFFFFF" points="107.7,358.2 170.2,394.3 170.2,322.1 	"/>
</g>
<g>
	<polygon fill="#FFFFFF" points="170.9,16.3 108.4,52.4 170.9,88.5 	"/>
	<polygon fill="#FFFFFF" points="233.5,124.6 233.5,124.6 233.5,52.4 170.9,88.5 	"/>
	<polygon fill="#FFFFFF" points="233.5,52.4 170.9,16.3 170.9,88.5 	"/>
	<polygon fill="#FFFFFF" points="108.4,52.4 108.4,52.4 108.4,124.6 170.9,88.5 	"/>
	<polygon fill="#FFFFFF" points="170.9,88.5 170.9,160.7 233.5,124.6 	"/>
	<polygon fill="#FFFFFF" points="108.4,124.6 170.9,160.7 170.9,88.5 	"/>
</g>
<g>
	<polygon fill="#FFFFFF" points="31.9,250.3 -30.7,286.4 31.9,322.5 	"/>
	<polygon fill="#FFFFFF" points="94.4,358.6 94.4,358.6 94.4,286.4 31.9,322.5 	"/>
	<polygon fill="#FFFFFF" points="94.4,286.4 31.9,250.3 31.9,322.5 	"/>
	<polygon fill="#FFFFFF" points="-30.7,286.4 -30.7,286.4 -30.7,358.6 31.9,322.5 	"/>
	<polygon fill="#FFFFFF" points="31.9,322.5 31.9,394.7 94.4,358.6 	"/>
	<polygon fill="#FFFFFF" points="-30.7,358.6 31.9,394.7 31.9,322.5 	"/>
</g>
<g>
	<polygon fill="#FFFFFF" points="33.3,14.9 -29.3,51 33.3,87.1 	"/>
	<polygon fill="#FFFFFF" points="95.8,123.3 95.8,123.3 95.8,51 33.3,87.1 	"/>
	<polygon fill="#FFFFFF" points="95.8,51 33.3,14.9 33.3,87.1 	"/>
	<polygon fill="#FFFFFF" points="-29.3,51 -29.3,51 -29.3,123.3 33.3,87.1 	"/>
	<polygon fill="#FFFFFF" points="33.3,87.1 33.3,159.4 95.8,123.3 	"/>
	<polygon fill="#FFFFFF" points="-29.3,123.3 33.3,159.4 33.3,87.1 	"/>
</g>
</svg>
