<?xml version="1.0" encoding="utf-8"?>
<!-- Generator: Adobe Illustrator 18.0.0, SVG Export Plug-In . SVG Version: 6.00 Build 0)  -->
<!DOCTYPE svg PUBLIC "-//W3C//DTD SVG 1.1//EN" "http://www.w3.org/Graphics/SVG/1.1/DTD/svg11.dtd">
<svg version="1.1" id="Layer_1" xmlns="http://www.w3.org/2000/svg" xmlns:xlink="http://www.w3.org/1999/xlink" x="0px" y="0px"
	 viewBox="0 0 300 150" enable-background="new 0 0 300 150" xml:space="preserve">
<text transform="matrix(1 0 0 1 117.6606 108.343)" fill="#FFFFFF" font-family="'DIN-Light'" font-size="32.8429">Sam Menza</text>
<text transform="matrix(1 0 0 1 117.6606 133.7893)" fill="#FFFFFF" font-family="'DIN-Light'" font-size="23.5374">Web Developer</text>
<g>
	<path fill="#FFFFFF" stroke="#FFFFFF" stroke-width="6" stroke-miterlimit="10" d="M50.1,34c-1,0.7-25.1-1.4-21.1,26.8
		c0,0,5.8,9.5,15,5.8c0,0,4.8,12.2,18.7,3.7c0,0,10.5-4.9,18,3c0,0,7.1,2.8,10.2-6.7c0,0,8.2,1.9,15-3.6c0,0,6.1,5.3,24.1,1.6
		c0,0,6.5,2.3,16.3-1.6c9.9-3.9,10.9-9.3,19.7-3.5c8.8,5.8,1.4-13.6-13.6-12.2c0,0-6.8-6.8-17-4.1c0,0-1.7-5.1,3.1-7.1
		c4.8-2-3.7-9.5-14.3-5.1c0,0-4.8-7.7-13.9-5.7c0,0-0.3-6.9-19-2.1c0,0-9.2-2.7-9.5-7.1s-9.3-8.3-24.1,5.4S50.1,34,50.1,34z"/>
	<path fill="#FFFFFF" stroke="#FFFFFF" stroke-width="6" stroke-miterlimit="10" d="M63.3,138.1c9.2,0,16.5-0.8,16.5-0.8
		S98.2,124.1,96,85.8H65.1l0.6,0H34.8C32.6,124.1,51,137.3,51,137.3s7.3,0.8,16.5,0.8"/>
	<path fill="none" stroke="#FFFFFF" stroke-width="4" stroke-miterlimit="10" d="M94.5,92.3c0,0,15.9,0,14.1,5.7
		c-1.8,5.7-5.9,32.5-23,32.9"/>
</g>
</svg>
